# xmcd
#
# Track frame offsets:
#	150
#	23357
#	38425
#	51342
#	67988
#	90864
#	110212
#	127422
#	153911
#
# Disc length: 2304 seconds
#
# Revision: 0
# Processed by: cddbd v1.5.2PL0 Copyright (c) Steve Scherf et al.
# Submitted via: EasyCDDAExtractor 15.3.0.1
#
DISCID=6a08fe09
DTITLE=Pablo Alboran - Prometo (Edicion Especial) - CD 2
DYEAR=2018
DGENRE=Latin
TTITLE0=Tu Refugio
TTITLE1=La Llave
TTITLE2=No Vaya A Ser
TTITLE3=Boca De Hule
TTITLE4=Lo Nuestro
TTITLE5=Curo Tus Labios
TTITLE6=Vivir (Cata Sessions)
TTITLE7=Prometo (Cata Sessions)
TTITLE8=La Mudanza (En Directo Featuring Niña Pastori)
EXTD=
EXTT0=
EXTT1=
EXTT2=
EXTT3=
EXTT4=
EXTT5=
EXTT6=
EXTT7=
EXTT8=
PLAYORDER=
